<?xml version="1.0" standalone="no"?>
<!DOCTYPE svg PUBLIC "-//W3C//DTD SVG 20010904//EN"
 "http://www.w3.org/TR/2001/REC-SVG-20010904/DTD/svg10.dtd">
<svg version="1.0" xmlns="http://www.w3.org/2000/svg"
 width="1000.000000pt" height="1085.000000pt" viewBox="0 0 1000.000000 1085.000000"
 preserveAspectRatio="xMidYMid meet">

<g transform="translate(0.000000,1085.000000) scale(0.100000,-0.100000)"
fill="#000000" stroke="none">
<path d="M4721 10085 c-83 -26 -131 -94 -131 -184 l0 -50 -115 6 c-94 5 -122
3 -159 -11 -41 -16 -98 -66 -108 -96 -2 -8 -25 -9 -88 -1 -120 15 -375 14
-510 -3 -453 -57 -888 -247 -1236 -540 -191 -161 -354 -363 -368 -457 -10 -66
18 -141 65 -179 19 -15 17 -19 -46 -115 -141 -214 -270 -518 -335 -790 -40
-167 -53 -279 -48 -415 3 -103 7 -121 30 -161 34 -58 95 -93 164 -93 l51 0 12
-94 c16 -120 46 -227 77 -274 25 -39 76 -71 131 -81 50 -10 126 18 162 58 33
38 41 42 41 22 0 -7 7 -37 15 -65 18 -61 66 -119 112 -139 18 -7 33 -17 33
-23 0 -44 46 -307 65 -374 82 -283 316 -591 597 -786 l107 -74 -78 -26 c-148
-50 -230 -134 -267 -275 -8 -27 -14 -62 -14 -77 0 -19 -5 -28 -15 -28 -27 0
-77 -30 -151 -91 -39 -32 -84 -61 -100 -65 -140 -34 -219 -122 -245 -270 -9
-51 -19 -78 -40 -102 -57 -65 -72 -109 -77 -217 -2 -67 -10 -118 -24 -155 -30
-83 -27 -179 10 -272 l29 -75 -104 -120 -104 -121 -57 -6 c-195 -23 -339 -138
-402 -320 -97 -283 71 -596 368 -686 101 -31 247 -25 340 12 l62 26 0 -1065
c0 -1009 1 -1064 18 -1059 9 3 105 30 212 61 107 31 371 108 585 170 215 62
602 175 860 250 259 75 607 177 775 227 168 50 321 94 340 99 19 4 289 82 600
173 770 224 1826 530 2340 677 234 67 429 125 434 130 5 4 -31 148 -83 331
-50 178 -91 329 -91 335 0 6 23 39 50 73 l50 63 0 307 c0 273 -2 315 -20 384
-26 104 -63 169 -137 244 -133 134 -326 179 -538 126 -46 -12 -388 -110 -487
-140 -13 -4 -28 18 -68 98 -47 96 -78 195 -93 294 -6 38 -5 41 27 57 19 8 50
30 69 47 34 30 38 31 77 20 77 -21 166 17 207 88 24 41 25 51 28 220 1 97 8
202 14 232 16 71 51 182 61 194 5 4 50 -74 100 -174 97 -192 109 -206 193
-232 48 -14 116 1 163 37 55 42 67 83 75 250 19 393 142 691 421 1017 72 85
88 135 68 210 -22 77 -102 138 -180 138 -23 0 -83 -12 -133 -27 -135 -40 -238
-38 -331 5 -143 67 -251 156 -416 342 -167 189 -262 269 -401 334 -119 57
-211 76 -366 76 l-133 0 0 39 c0 51 -43 218 -70 270 l-21 42 81 109 c367 497
650 1090 764 1600 49 222 60 307 60 490 2 331 -55 458 -209 468 -128 8 -186
-53 -230 -246 -86 -369 -320 -872 -600 -1290 l-43 -64 2 104 c0 64 -4 119 -13
144 -13 39 -12 42 32 130 73 147 95 235 76 310 -15 60 -72 119 -129 134 -38
10 -41 13 -36 38 25 115 36 216 36 332 0 210 -30 303 -113 358 -78 52 -202 29
-253 -47 -13 -20 -37 -83 -54 -140 -17 -58 -37 -115 -44 -128 -12 -24 -13 -23
-45 39 -89 171 -275 370 -408 437 -80 40 -177 22 -237 -43 l-31 -34 -87 42
c-164 81 -285 108 -367 81z m-781 -725 c-41 -4 -101 -3 -135 0 -45 6 -26 7 75
7 115 0 124 -1 60 -7z m133 -7 c-7 -2 -21 -2 -30 0 -10 3 -4 5 12 5 17 0 24
-2 18 -5z m-130 -10 c-7 -2 -19 -2 -25 0 -7 3 -2 5 12 5 14 0 19 -2 13 -5z
m190 0 c-7 -2 -19 -2 -25 0 -7 3 -2 5 12 5 14 0 19 -2 13 -5z m-140 -10 c-7
-2 -19 -2 -25 0 -7 3 -2 5 12 5 14 0 19 -2 13 -5z m184 1 c-3 -3 -12 -4 -19
-1 -8 3 -5 6 6 6 11 1 17 -2 13 -5z m3004 -126 c-96 -564 -383 -1182 -814
-1754 -87 -115 -103 -133 -113 -119 -10 14 -1 31 57 102 186 233 333 464 450
709 71 149 90 215 25 86 -50 -100 -127 -228 -219 -367 -94 -142 -326 -455
-337 -455 -4 0 -14 53 -23 118 l-16 117 40 50 c400 499 723 1035 905 1497 32
81 60 146 62 144 2 -2 -6 -60 -17 -128z m-3144 116 c-3 -3 -12 -4 -19 -1 -8 3
-5 6 6 6 11 1 17 -2 13 -5z m180 0 c-3 -3 -12 -4 -19 -1 -8 3 -5 6 6 6 11 1
17 -2 13 -5z m-140 -10 c-3 -3 -12 -4 -19 -1 -8 3 -5 6 6 6 11 1 17 -2 13 -5z
m180 0 c-3 -3 -12 -4 -19 -1 -8 3 -5 6 6 6 11 1 17 -2 13 -5z m-47 -44 c8 -5
11 -10 5 -10 -5 0 -17 5 -25 10 -8 5 -10 10 -5 10 6 0 17 -5 25 -10z m180 0
c8 -5 11 -10 5 -10 -5 0 -17 5 -25 10 -8 5 -10 10 -5 10 6 0 17 -5 25 -10z
m-130 -20 c8 -5 11 -10 5 -10 -5 0 -17 5 -25 10 -8 5 -10 10 -5 10 6 0 17 -5
25 -10z m180 0 c8 -5 11 -10 5 -10 -5 0 -17 5 -25 10 -8 5 -10 10 -5 10 6 0
17 -5 25 -10z m120 -55 c39 -19 70 -38 70 -40 0 -5 -139 62 -149 71 -13 12 18
0 79 -31z m-215 15 c3 -6 -1 -7 -9 -4 -18 7 -21 14 -7 14 6 0 13 -4 16 -10z
m-177 -25 c12 -10 -41 -10 -64 0 -28 12 -27 12 16 7 25 -2 46 -6 48 -7z m261
-21 c14 -12 -19 -1 -35 12 -18 14 -18 14 6 3 14 -6 27 -13 29 -15z m-196 9
c-7 -2 -19 -2 -25 0 -7 3 -2 5 12 5 14 0 19 -2 13 -5z m-33 -23 c19 -11 31
-19 25 -19 -5 0 -26 8 -45 19 -19 11 -30 19 -25 19 6 0 26 -8 45 -19z m93 13
c-7 -2 -19 -2 -25 0 -7 3 -2 5 12 5 14 0 19 -2 13 -5z m50 -10 c-7 -2 -19 -2
-25 0 -7 3 -2 5 12 5 14 0 19 -2 13 -5z m44 -9 c-3 -3 -12 -4 -19 -1 -8 3 -5
6 6 6 11 1 17 -2 13 -5z m436 -107 c48 -32 87 -61 87 -62 0 -2 -18 4 -39 13
-22 9 -39 21 -38 25 1 4 -41 35 -92 68 -52 33 -97 62 -100 66 -12 14 97 -52
182 -110z m-558 75 c-3 -3 -11 0 -18 7 -9 10 -8 11 6 5 10 -3 15 -9 12 -12z
m145 -78 c0 -2 -9 0 -20 6 -11 6 -20 13 -20 16 0 2 9 0 20 -6 11 -6 20 -13 20
-16z m267 20 c-3 -3 -12 -4 -19 -1 -8 3 -5 6 6 6 11 1 17 -2 13 -5z m40 -10
c-3 -3 -12 -4 -19 -1 -8 3 -5 6 6 6 11 1 17 -2 13 -5z m54 -156 c18 -24 18
-28 4 -28 -9 0 -13 4 -10 10 3 5 -29 47 -72 92 l-77 83 68 -65 c37 -36 76 -77
87 -92z m-14 146 c-3 -3 -12 -4 -19 -1 -8 3 -5 6 6 6 11 1 17 -2 13 -5z m-219
-82 c15 -13 1 -6 -30 14 -32 20 -58 39 -58 41 0 7 58 -29 88 -55z m-270 -59
c-10 -2 -28 -2 -40 0 -13 2 -5 4 17 4 22 1 32 -1 23 -4z m240 0 c-16 -2 -40
-2 -55 0 -16 2 -3 4 27 4 30 0 43 -2 28 -4z m-345 -10 c-7 -2 -19 -2 -25 0 -7
3 -2 5 12 5 14 0 19 -2 13 -5z m-56 -9 c-3 -3 -12 -4 -19 -1 -8 3 -5 6 6 6 11
1 17 -2 13 -5z m-80 -20 c-3 -3 -12 -4 -19 -1 -8 3 -5 6 6 6 11 1 17 -2 13 -5z
m708 -4 c-11 -5 -27 -9 -35 -9 -9 0 -8 4 5 9 11 5 27 9 35 9 9 0 8 -4 -5 -9z
m-502 -7 c-24 -2 -62 -2 -85 0 -24 2 -5 4 42 4 47 0 66 -2 43 -4z m-269 -12
c3 -5 -11 -11 -32 -15 -20 -3 -48 -8 -62 -11 -14 -3 -2 3 25 14 59 23 62 24
69 12z m84 2 c-10 -2 -26 -2 -35 0 -10 3 -2 5 17 5 19 0 27 -2 18 -5z m345 0
c-13 -2 -35 -2 -50 0 -16 2 -5 4 22 4 28 0 40 -2 28 -4z m280 0 c-7 -2 -19 -2
-25 0 -7 3 -2 5 12 5 14 0 19 -2 13 -5z m-90 -10 c-24 -2 -62 -2 -85 0 -24 2
-5 4 42 4 47 0 66 -2 43 -4z m1266 -283 c-18 -22 -34 -40 -37 -40 -2 0 2 7 9
17 12 14 12 17 0 21 -9 3 -2 11 20 23 19 10 35 18 37 19 2 0 -12 -18 -29 -40z
m-126 -57 c-22 -21 -44 -48 -48 -61 -4 -13 -9 -21 -12 -19 -9 9 26 64 57 91
47 39 49 31 3 -11z m-60 -147 c3 -30 1 -43 -4 -35 -8 13 -13 97 -5 88 2 -2 6
-26 9 -53z m134 2 c-3 -7 -5 -2 -5 12 0 14 2 19 5 13 2 -7 2 -19 0 -25z m-835
-19 c215 -72 388 -299 405 -533 5 -70 11 -90 44 -146 33 -56 112 -228 106
-231 -1 0 -49 -2 -107 -5 -58 -2 -136 -8 -174 -14 l-68 -11 -52 44 c-41 34
-82 65 -124 92 -1 1 9 23 23 48 32 56 87 206 82 221 -2 6 -20 -20 -40 -59 -53
-105 -130 -209 -235 -317 -126 -130 -176 -167 -309 -226 -62 -27 -159 -77
-215 -110 -57 -34 -123 -70 -148 -81 -74 -32 -238 -71 -351 -83 -95 -10 -116
-8 -210 10 -139 29 -262 42 -388 42 -102 0 -105 1 -196 44 -52 24 -126 65
-165 90 -40 26 -74 45 -76 43 -2 -2 16 -23 40 -46 l44 -43 -26 -57 c-14 -31
-26 -57 -27 -59 -1 -1 -26 -9 -56 -16 -30 -8 -62 -18 -71 -21 -17 -7 -18 2
-18 104 0 129 10 159 113 346 150 273 331 497 548 677 213 176 318 235 479
270 100 22 127 23 535 23 288 1 440 5 460 12 47 18 110 15 177 -8z m845 -61
c-3 -7 -5 -2 -5 12 0 14 2 19 5 13 2 -7 2 -19 0 -25z m-78 -93 c0 -5 -13 15
-29 45 -16 30 -29 60 -29 65 0 6 13 -15 29 -45 16 -30 29 -59 29 -65z m88 43
c-3 -8 -6 -5 -6 6 -1 11 2 17 5 13 3 -3 4 -12 1 -19z m10 -50 c-3 -7 -5 -2 -5
12 0 14 2 19 5 13 2 -7 2 -19 0 -25z m-30 -20 c-3 -8 -6 -5 -6 6 -1 11 2 17 5
13 3 -3 4 -12 1 -19z m-37 -55 c0 -32 -5 -28 -14 10 -4 19 -3 26 4 22 5 -3 10
-18 10 -32z m47 5 c-3 -7 -5 -2 -5 12 0 14 2 19 5 13 2 -7 2 -19 0 -25z m30
-20 c-2 -13 -4 -5 -4 17 -1 22 1 32 4 23 2 -10 2 -28 0 -40z m-20 -45 c-3 -10
-5 -4 -5 12 0 17 2 24 5 18 2 -7 2 -21 0 -30z m30 -55 c-3 -7 -5 -2 -5 12 0
14 2 19 5 13 2 -7 2 -19 0 -25z m-16 -126 c-7 -29 -9 -17 -9 58 0 91 1 93 9
37 5 -33 5 -74 0 -95z m-827 -421 c23 -16 48 -36 55 -45 11 -13 9 -16 -16 -22
-15 -3 -42 -9 -59 -14 -24 -6 -35 -3 -57 16 -15 13 -27 26 -27 29 0 11 44 65
53 65 4 0 27 -13 51 -29z m1207 -152 c185 -92 235 -478 105 -799 -84 -209
-251 -365 -388 -363 -27 0 -54 5 -58 9 -5 5 -2 36 5 69 8 32 12 61 10 64 -6 6
-6 7 -49 -72 -81 -147 -241 -326 -359 -401 -195 -124 -390 -187 -519 -166 -88
14 -150 48 -253 138 -107 94 -203 158 -259 173 -23 6 -73 9 -114 6 -62 -5 -89
-14 -185 -61 -67 -32 -163 -69 -238 -90 -249 -70 -258 -76 -324 -219 -19 -42
-45 -83 -57 -91 -64 -45 -228 15 -426 154 -151 106 -307 356 -346 555 -5 27
-4 28 7 10 6 -11 32 -41 58 -66 50 -50 128 -79 210 -78 l44 0 -76 28 c-43 15
-88 35 -102 44 -77 50 -197 396 -197 569 0 50 25 113 54 137 9 7 66 22 128 33
133 23 373 24 508 3 76 -13 79 -14 22 -10 -34 3 -70 0 -80 -5 -9 -5 -51 -26
-92 -45 l-75 -36 -27 32 c-53 63 -27 22 76 -121 101 -140 104 -144 141 -144
29 -1 42 -7 58 -27 19 -26 19 -28 1 -58 -12 -20 -26 -31 -40 -31 -12 0 -24 -5
-26 -11 -4 -13 -63 53 -165 187 l-69 91 -31 -26 -31 -26 79 -113 c109 -156
106 -148 63 -157 -29 -5 -33 -9 -24 -20 11 -13 8 -13 -19 -4 -17 6 -42 24 -55
39 -13 16 -27 26 -31 22 -4 -4 -5 -2 -3 5 3 14 -135 216 -140 203 -6 -17 41
-136 74 -186 63 -94 149 -143 254 -144 200 0 350 205 338 462 -4 86 -4 88 18
88 13 0 34 -4 48 -10 26 -9 26 -11 26 -118 0 -176 -45 -302 -146 -412 -158
-170 -390 -168 -558 3 -69 71 -109 138 -142 241 -13 39 -23 61 -24 48 0 -15
-4 -21 -12 -16 -16 10 -4 -60 23 -131 47 -125 149 -239 266 -297 84 -41 209
-51 294 -23 110 37 202 113 271 227 49 80 48 65 -3 -39 -68 -142 -128 -189
-284 -227 -135 -33 -136 -34 -58 -35 79 -1 197 20 244 44 100 52 201 244 264
503 15 63 22 77 49 93 30 18 88 32 177 43 l46 5 63 -107 c84 -143 144 -223
232 -308 119 -116 173 -134 340 -115 92 10 266 57 255 68 -3 3 -38 0 -77 -7
-39 -7 -119 -12 -178 -13 -89 -1 -115 3 -155 21 -59 26 -115 70 -150 115 l-26
34 64 -34 c128 -68 303 -91 444 -58 246 58 433 279 442 520 3 84 -2 153 -9
128 -9 -28 -26 -18 -39 22 -8 24 -9 16 -6 -40 6 -89 -17 -199 -59 -285 -40
-83 -151 -195 -230 -233 -225 -108 -488 -56 -678 133 -95 95 -140 175 -140
252 0 45 4 59 25 78 14 13 26 22 27 19 2 -2 14 -26 28 -52 30 -58 34 -61 52
-44 22 23 59 39 74 33 21 -8 18 -1 -27 65 -28 42 -38 64 -30 72 12 15 80 52
84 46 2 -2 68 -95 148 -207 79 -112 157 -221 172 -243 l28 -39 -38 0 c-91 0
-111 15 -205 154 -4 6 -12 5 -22 -3 -8 -7 -36 -16 -63 -19 l-48 -7 60 -48
c258 -205 573 -153 676 111 28 71 31 231 5 302 -14 39 -15 40 -11 11 4 -27 2
-31 -9 -22 -11 9 -12 -2 -8 -63 2 -41 1 -96 -3 -123 l-7 -48 -19 51 c-11 28
-29 60 -41 70 l-22 19 22 -29 c30 -40 29 -79 -5 -106 -19 -15 -35 -19 -53 -15
-91 23 -94 145 -4 145 32 0 33 1 27 33 -10 53 -36 100 -58 103 -19 2 -93 13
-140 20 -39 6 -235 19 -235 16 0 -5 281 -390 332 -455 21 -27 38 -52 38 -57 0
-8 -59 -35 -63 -29 -2 2 -88 117 -192 256 l-188 252 -29 -15 c-43 -22 -33 -9
15 19 180 106 696 249 801 223 68 -17 128 -108 148 -225 25 -145 -28 -498 -87
-575 -32 -42 -114 -108 -188 -151 -26 -15 -46 -29 -43 -32 7 -7 122 42 182 78
78 47 132 102 160 163 28 62 58 227 75 418 11 123 14 140 35 159 13 12 26 21
28 18 2 -2 10 -73 17 -157 l12 -153 42 90 c64 134 116 203 84 112 -17 -48 -5
-47 24 2 14 24 58 79 98 121 124 133 239 171 350 115z m-3276 -285 c35 -23 31
-31 -16 -39 -49 -8 -53 -5 -38 29 14 30 21 32 54 10z m814 -317 c0 -58 -6
-119 -14 -142 l-14 -40 7 50 c4 28 7 94 6 147 0 53 3 95 8 92 4 -3 8 -51 7
-107z m1328 91 c-3 -8 -6 -5 -6 6 -1 11 2 17 5 13 3 -3 4 -12 1 -19z m1838
-113 c144 -31 259 -111 421 -296 186 -212 320 -324 479 -404 116 -58 187 -76
307 -76 l97 0 -55 -82 c-127 -189 -232 -441 -278 -669 l-22 -110 -47 80 c-40
69 -71 113 -156 217 -9 10 8 -1 38 -25 30 -24 71 -66 92 -93 l38 -48 6 28 c29
130 78 279 131 399 3 6 -12 24 -33 40 -21 15 -96 77 -168 137 -152 128 -300
228 -428 291 -51 25 -190 77 -309 116 -166 55 -237 83 -304 123 -93 56 -168
121 -161 140 14 45 230 47 397 3 90 -23 207 -63 295 -101 36 -16 34 -12 -39
56 -101 95 -150 131 -238 179 -95 51 -177 65 -326 56 -117 -6 -152 -16 -152
-41 0 -18 -16 -20 -23 -2 -7 20 10 55 35 69 46 26 302 34 403 13z m-3890 -191
c9 -15 12 -23 6 -20 -11 7 -35 46 -28 46 3 0 12 -12 22 -26z m3448 -306 c32
-38 34 -52 8 -43 -18 6 -19 2 -14 -68 3 -44 1 -88 -6 -108 l-11 -34 -107 3
c-60 2 -113 5 -119 7 -24 8 -65 74 -72 116 l-8 44 -180 -177 c-100 -98 -184
-178 -187 -178 -4 0 18 37 47 83 30 45 71 116 91 157 37 75 37 76 94 92 73 22
170 86 222 148 l40 47 87 -28 c66 -22 94 -36 115 -61z m186 -178 c11 -27 18
-136 9 -145 -15 -15 -44 46 -47 97 -1 36 -8 60 -22 74 -10 11 -19 28 -19 38 0
15 5 13 34 -11 19 -15 39 -39 45 -53z m254 34 c183 -28 324 -80 376 -139 17
-19 56 -79 87 -132 106 -183 144 -233 219 -292 18 -14 25 -25 18 -28 -49 -18
-211 -168 -265 -246 l-39 -58 -18 23 c-33 44 -188 294 -270 435 -73 126 -231
440 -231 458 0 4 8 4 18 0 9 -4 56 -13 105 -21z m-2470 -208 c102 -45 167
-156 167 -284 0 -142 -87 -237 -246 -270 -67 -15 -110 -2 -165 47 l-43 38 34
18 c35 17 130 103 130 117 0 4 -21 -6 -47 -22 -81 -49 -167 -73 -270 -74 -51
-1 -93 -2 -93 -3 0 0 20 -13 45 -27 41 -24 75 -60 75 -78 0 -20 -43 -48 -73
-48 -84 0 -233 114 -256 196 -25 89 -6 188 41 217 14 9 63 17 131 20 120 7
179 27 294 104 64 42 142 72 190 73 18 0 56 -11 86 -24z m2212 -114 c152 -49
171 -62 220 -145 22 -39 85 -180 85 -192 0 -1 -35 9 -77 24 -72 24 -76 26 -45
31 l32 5 -40 61 c-22 34 -71 91 -108 126 -57 54 -85 71 -163 102 -161 65 -126
60 96 -12z m-130 -33 c56 -24 190 -108 183 -114 -2 -2 -25 2 -50 10 -183 55
-504 37 -715 -40 -37 -13 -69 -23 -71 -21 -6 7 111 79 181 111 82 38 172 63
267 75 88 11 145 6 205 -21z m-53 -294 c73 -31 168 -89 231 -142 35 -28 27
-29 -49 -3 -168 58 -364 78 -549 56 -71 -9 -136 -16 -142 -16 -7 0 -13 -4 -13
-10 0 -5 7 -10 16 -10 52 0 246 -102 359 -189 76 -59 207 -182 200 -189 -3 -3
-20 8 -38 24 -156 146 -501 301 -731 329 l-59 7 44 27 c57 36 159 76 245 98
81 20 341 24 414 5 24 -6 46 -9 48 -8 2 2 -21 18 -50 35 -61 37 -36 32 74 -14z
m555 -137 c39 -27 73 -55 76 -62 3 -6 1 -35 -4 -64 -8 -50 -22 -204 -35 -364
l-6 -78 -48 53 c-51 56 -57 68 -17 43 l24 -16 11 138 c15 171 15 263 1 298 -5
16 -31 48 -57 72 -54 51 -45 48 55 -20z m-3269 -214 c53 -83 54 -84 117 -103
167 -52 388 -72 565 -52 108 12 296 53 331 71 31 17 22 -1 -23 -47 -59 -60
-42 -54 33 12 57 49 90 66 233 124 20 8 -42 -67 -112 -136 -130 -128 -260
-199 -443 -243 -122 -29 -275 -26 -384 7 -17 5 -18 4 -6 -11 19 -22 -1 -21
-47 4 -48 25 -77 48 -70 55 3 3 27 1 53 -6 68 -17 221 -6 339 25 55 15 101 27
102 29 1 1 -86 2 -194 2 -176 0 -204 2 -269 23 -151 47 -232 126 -306 300
l-36 83 32 -27 c18 -15 56 -64 85 -110z m-112 -46 c15 -35 29 -65 31 -68 1 -3
-9 -18 -23 -35 l-26 -30 6 28 c9 41 -8 33 -28 -13 -25 -57 -115 -151 -178
-185 -45 -26 -64 -30 -125 -30 -78 1 -106 14 -146 66 -24 34 -33 101 -17 139
18 44 65 67 181 91 94 18 231 64 269 89 24 15 26 13 56 -52z m2219 -54 c160
-27 337 -128 480 -275 47 -48 62 -68 37 -48 -172 138 -366 249 -542 309 -81
28 -76 31 25 14z m1410 -75 c-8 -35 -18 -108 -22 -161 -3 -54 -9 -98 -13 -98
-5 0 -26 38 -49 83 -44 89 -61 171 -43 203 10 17 11 17 12 -6 0 -14 13 -54 29
-89 l29 -64 7 34 c10 45 57 171 62 166 2 -2 -3 -33 -12 -68z m-3481 -111 c31
-83 31 -81 7 -68 -31 16 -93 12 -129 -10 -62 -38 -90 -153 -60 -252 10 -35 9
-41 -9 -59 l-20 -21 -72 47 -72 46 35 47 c60 79 97 134 93 139 -3 2 -38 -32
-78 -76 -40 -45 -79 -81 -87 -81 -7 0 -12 4 -10 8 2 5 77 94 168 200 l165 191
22 -21 c12 -11 33 -51 47 -90z m1911 -69 c107 -32 163 -67 220 -136 67 -81
166 -248 206 -348 38 -95 82 -267 99 -384 l13 -83 57 88 c32 49 79 131 105
183 l47 94 19 -24 c27 -35 24 -53 -22 -138 -67 -122 -212 -315 -232 -308 -5 1
-18 35 -28 75 -40 157 -183 464 -300 642 -78 118 -211 253 -305 308 -38 23
-76 42 -82 42 -7 0 -12 5 -12 11 0 18 131 4 215 -22z m897 -67 c71 -55 127
-127 168 -215 l32 -67 61 42 c139 92 168 147 137 258 -17 64 18 4 42 -71 33
-104 25 -122 -91 -186 -52 -28 -113 -65 -136 -82 l-43 -30 -6 37 c-7 44 -63
162 -100 212 -15 19 -54 64 -89 99 -68 70 -62 71 25 3z m-2623 -24 c23 -23 39
-44 37 -46 -16 -15 -96 47 -96 74 0 24 18 15 59 -28z m-182 12 c57 -34 67 -59
59 -156 -6 -75 -5 -90 12 -119 24 -39 14 -55 -33 -55 -114 0 -216 249 -135
330 25 25 56 25 97 0z m1231 -45 c3 -3 -46 -126 -53 -133 -2 -2 -52 12 -112
31 -59 19 -123 38 -141 42 -32 7 -29 8 60 40 83 30 101 33 168 28 41 -3 76 -7
78 -8z m-1979 -42 c30 -16 56 -32 58 -38 1 -5 -15 -17 -36 -26 -36 -16 -42
-15 -92 2 -30 10 -73 18 -96 19 -24 0 -43 4 -43 9 0 5 19 23 43 41 50 37 82
36 166 -7z m953 -66 c-3 -32 1 -43 30 -70 19 -18 63 -47 97 -66 34 -18 60 -35
57 -38 -7 -7 -189 86 -203 105 -7 9 -13 38 -13 65 0 41 3 48 17 45 14 -3 17
-11 15 -41z m1605 -21 c96 -46 135 -74 216 -153 54 -54 79 -89 128 -185 57
-112 149 -328 149 -350 0 -21 -111 -179 -132 -188 -13 -5 -142 -44 -288 -86
-146 -41 -316 -91 -377 -110 l-113 -35 0 -116 0 -115 -32 6 c-18 3 -126 19
-240 36 -432 63 -800 159 -1055 276 -71 32 -73 34 -73 69 0 25 4 35 13 31 46
-19 227 -72 316 -92 166 -38 183 -29 36 20 -115 38 -355 133 -355 141 0 17 64
153 92 195 54 81 144 177 193 205 40 24 46 25 113 15 40 -5 109 -17 154 -26
59 -11 185 -18 433 -23 300 -7 365 -12 454 -30 57 -12 120 -29 139 -37 82 -34
34 16 -65 68 -35 18 -63 37 -63 41 0 35 133 334 198 445 23 40 28 43 56 38 17
-4 63 -22 103 -40z m-2289 0 c22 -8 92 -49 154 -92 124 -85 260 -155 338 -175
57 -15 61 -35 6 -32 -61 4 -177 60 -353 169 -154 96 -170 104 -217 104 -58 0
-160 -27 -244 -64 -51 -23 -54 -24 -32 -5 58 49 204 107 271 108 20 1 55 -5
77 -13z m-384 -35 c17 -6 14 -10 -20 -31 -21 -13 -61 -45 -89 -71 -42 -39 -60
-48 -115 -59 -36 -6 -73 -16 -82 -21 -24 -13 -26 -3 -18 79 8 81 14 91 62 102
42 10 237 11 262 1z m379 -97 c50 -26 116 -83 144 -125 l25 -38 -27 -47 c-65
-111 -229 -234 -313 -234 -87 0 -272 81 -272 119 0 50 144 222 245 291 105 72
118 74 198 34z m3387 -54 c0 -69 -19 -100 -61 -100 -40 0 -76 20 -119 65 l-35
37 56 -31 c47 -26 61 -30 82 -22 31 12 57 58 57 103 0 25 3 29 10 18 5 -8 10
-40 10 -70z m-2626 20 c20 -7 26 -16 26 -40 0 -26 -3 -29 -16 -22 -15 8 -49
72 -39 72 2 0 15 -4 29 -10z m2770 -168 c26 -179 63 -286 164 -484 2 -5 -5 -8
-16 -8 -16 0 -32 23 -69 98 -26 53 -49 99 -51 102 -2 2 -22 -6 -45 -18 -48
-25 -67 -28 -67 -9 0 7 14 53 30 103 29 83 30 93 20 154 -15 97 -15 147 0 164
7 9 14 15 15 14 2 -2 10 -54 19 -116z m-4178 8 c-19 -28 -38 -60 -41 -70 -5
-16 -50 -46 -116 -78 -11 -5 -20 95 -10 120 7 19 26 30 88 51 115 39 120 37
79 -23z m1388 -2 c20 -36 21 -38 2 -55 -10 -10 -20 -13 -22 -8 -2 6 -13 25
-24 43 -15 25 -27 32 -52 33 l-33 1 30 14 c47 21 74 14 99 -28z m-1478 -208
c-3 -11 -9 -29 -12 -40 -12 -44 239 -195 432 -259 49 -17 81 -30 72 -30 -27
-1 -157 28 -179 40 -11 6 -25 8 -32 6 -17 -7 128 -74 198 -92 32 -8 89 -15
125 -16 36 0 74 -4 85 -8 35 -15 -60 -34 -165 -34 -182 0 -316 56 -447 189
-46 46 -83 81 -83 78 0 -3 6 -17 14 -32 13 -26 12 -30 -14 -65 l-28 -38 -23
32 c-26 37 -68 136 -69 161 0 22 55 85 95 110 37 22 38 22 31 -2z m82 -313 c9
-10 2 -25 -28 -61 -62 -74 -57 -83 49 -91 49 -4 95 -4 102 0 7 5 10 3 7 -6 -4
-11 -31 -14 -116 -15 l-112 -1 0 49 c0 42 5 56 36 94 39 48 46 51 62 31z
m5390 -16 c43 -22 72 -52 98 -101 17 -31 19 -64 22 -303 l3 -267 -65 -77 c-36
-42 -66 -81 -66 -86 0 -6 31 -121 69 -256 38 -135 71 -254 73 -265 3 -16 -16
-24 -127 -57 -71 -21 -141 -41 -155 -44 -25 -5 -26 -3 -74 170 -27 96 -52 175
-56 175 -4 0 -28 -22 -54 -50 l-46 -49 0 -155 0 -155 -72 -22 c-40 -12 -108
-32 -150 -44 l-78 -23 0 744 0 743 68 20 c37 11 138 41 225 66 87 25 177 50
200 55 58 12 141 3 185 -19z m-5548 -285 l0 -154 -82 -7 c-46 -4 -87 -8 -93
-8 -18 -3 -5 107 17 138 22 31 151 184 156 185 1 0 2 -69 2 -154z m478 117
c68 -12 4 -57 -67 -47 -71 9 -75 13 -49 41 18 20 29 23 53 18 16 -3 45 -9 63
-12z m4240 -1109 l-3 -377 -147 -42 -148 -42 0 224 0 225 -37 -7 c-21 -4 -77
-16 -125 -27 l-88 -20 -2 -235 -3 -236 -150 -43 c-82 -24 -151 -44 -152 -44
-2 0 -3 100 -3 223 l0 222 -42 92 c-24 51 -46 92 -50 93 -5 0 -8 -33 -8 -72
l0 -73 -228 -50 -227 -50 -5 -275 -5 -275 -160 -47 c-88 -26 -167 -49 -175
-50 -13 -3 -16 34 -20 267 l-5 270 -58 114 c-32 62 -55 116 -52 120 3 3 30 13
58 21 l52 16 3 454 c1 250 6 457 10 461 6 7 792 239 807 239 3 0 5 -67 5 -150
0 -82 -2 -150 -5 -150 -5 0 -374 -81 -432 -95 l-23 -5 0 -324 0 -324 222 65
c122 35 226 66 230 69 4 3 8 -22 8 -55 0 -34 1 -61 3 -61 1 0 22 6 47 14 l45
13 6 264 c6 283 11 314 64 404 37 65 123 146 192 182 32 17 177 65 323 108
146 42 267 79 270 82 7 6 11 -634 8 -1113z m-4516 1056 c11 0 16 -4 13 -10 -3
-5 -35 -10 -71 -10 l-64 0 0 -72 c0 -40 -5 -80 -10 -88 -7 -10 -10 18 -10 89
l0 104 61 -7 c34 -3 71 -6 81 -6z m714 -188 c120 -119 192 -135 370 -82 108
32 109 32 161 16 29 -9 54 -20 56 -24 7 -12 -12 -163 -31 -240 l-17 -74 -105
-32 c-254 -78 -419 -214 -520 -428 l-30 -63 0 288 c0 158 -3 287 -7 287 -5 0
-161 -45 -348 -100 -187 -54 -341 -97 -343 -96 -1 2 2 23 7 47 6 24 11 67 11
94 0 49 2 52 121 190 l121 140 87 2 c47 1 106 9 130 18 45 16 110 58 124 82 4
7 18 13 30 14 18 0 108 23 113 28 1 0 33 -30 70 -67z m-1191 -197 c-8 -81 -15
-154 -15 -163 0 -12 -3 -12 -16 -1 -16 13 -16 10 2 184 l5 50 -22 -25 c-81
-95 -91 -103 -105 -89 -11 12 1 30 74 115 48 55 88 95 90 89 2 -7 -4 -79 -13
-160z m236 81 c-8 -9 -34 -16 -64 -18 l-52 -3 -5 -60 c-4 -43 -12 -70 -28 -90
l-23 -30 6 85 c10 136 5 129 93 132 43 2 79 2 81 1 2 -2 -2 -9 -8 -17z m-568
-72 c3 -3 -4 -22 -16 -42 -25 -42 -29 -124 -8 -184 29 -87 145 -159 254 -157
95 1 95 2 -4 123 -49 59 -89 111 -89 115 0 3 52 -46 114 -108 63 -63 112 -119
109 -124 -13 -22 -91 -47 -148 -47 -70 0 -163 39 -207 86 -83 90 -100 229 -40
322 14 22 24 27 35 16z m3427 -168 c0 -46 -30 -540 -33 -542 -1 0 -54 -12
-117 -26 l-115 -24 -3 153 c-1 84 -6 153 -11 153 -19 0 -139 -44 -168 -61 -41
-25 -53 -63 -53 -163 l0 -81 258 -111 257 -110 3 -148 c1 -82 -2 -174 -8 -205
-24 -130 -123 -263 -245 -328 -33 -17 -141 -55 -240 -83 -99 -29 -208 -61
-243 -71 l-62 -18 2 266 3 267 113 24 c63 13 116 22 118 19 3 -2 11 -57 18
-121 8 -65 15 -119 17 -121 8 -7 175 47 199 64 28 20 48 81 49 151 l1 45 -260
115 -261 115 3 215 3 215 32 68 c39 82 142 189 218 227 44 21 480 157 513 159
8 1 12 -14 12 -43z m-910 -960 l0 -743 -124 -37 c-68 -20 -137 -39 -155 -42
l-31 -6 0 224 0 225 -102 -23 c-57 -13 -113 -26 -125 -29 l-23 -5 0 -235 0
-234 -82 -25 c-46 -14 -113 -33 -150 -44 l-68 -20 0 219 0 218 -55 112 c-30
61 -55 113 -55 115 0 2 25 11 55 19 l55 16 0 254 c0 276 7 322 63 418 38 64
142 156 212 187 33 15 172 60 310 99 137 40 252 74 254 77 2 2 8 4 13 4 4 0 8
-335 8 -744z m-1375 -872 c14 4 49 15 78 26 l52 20 0 187 0 187 133 49 c73 27
136 46 140 43 8 -8 48 -643 41 -651 -7 -6 -793 -235 -808 -235 -8 0 -11 244
-11 863 l0 863 173 50 172 50 3 -729 2 -729 25 6z"/>
<path d="M4636 7619 c-73 -110 -286 -288 -433 -363 -128 -64 -89 -142 43 -86
150 65 307 216 380 366 52 105 57 155 10 83z"/>
<path d="M3088 7232 c40 -56 134 -134 195 -163 72 -33 208 -63 249 -54 68 15
49 70 -30 80 -122 17 -225 54 -349 124 -40 23 -75 41 -78 41 -4 0 2 -12 13
-28z"/>
<path d="M6095 7139 c-88 -25 -164 -140 -173 -259 -4 -64 -2 -75 32 -146 43
-90 44 -114 11 -187 -88 -192 46 -315 156 -144 53 82 49 97 -10 36 -36 -37
-55 -50 -71 -47 -39 5 -47 32 -27 85 10 27 25 64 32 83 7 19 16 70 19 113 7
88 21 121 78 183 22 24 35 44 28 44 -16 0 -110 -48 -131 -66 -50 -45 -64 25
-29 139 20 64 57 109 130 159 22 15 23 17 5 17 -11 -1 -34 -5 -50 -10z"/>
<path d="M3798 6060 c-57 -87 -16 -155 90 -148 l47 3 -50 25 c-49 24 -50 26
-60 85 l-11 60 -16 -25z"/>
<path d="M4373 5736 c14 -35 -417 -196 -526 -196 -21 0 -54 7 -73 15 -57 24
-37 -6 26 -37 62 -32 110 -35 215 -13 88 19 185 56 300 113 50 25 97 46 105
46 26 1 24 52 -2 70 -28 20 -52 21 -45 2z"/>
<path d="M7730 3262 l-55 -18 -3 -287 c-1 -158 1 -287 6 -287 9 0 85 78 160
164 l52 60 0 157 c0 152 -8 205 -33 221 -19 12 -68 8 -127 -10z"/>
<path d="M8090 2930 c-9 -6 -10 -10 -3 -10 6 0 14 -10 16 -22 3 -17 5 -14 6
10 1 36 2 35 -19 22z"/>
<path d="M8048 2913 c7 -3 16 -2 19 1 4 3 -2 6 -13 5 -11 0 -14 -3 -6 -6z"/>
<path d="M7978 2893 c7 -3 16 -2 19 1 4 3 -2 6 -13 5 -11 0 -14 -3 -6 -6z"/>
<path d="M8079 2853 c-13 -16 -12 -17 4 -4 16 13 21 21 13 21 -2 0 -10 -8 -17
-17z"/>
<path d="M2413 3238 c-41 -48 -53 -70 -53 -95 0 -36 8 -39 83 -27 l37 7 0 88
c0 49 -3 89 -7 89 -5 0 -32 -28 -60 -62z"/>
<path d="M6827 3000 c-155 -50 -157 -55 -157 -355 0 -226 0 -226 21 -220 12 4
66 20 121 36 56 15 102 30 105 32 2 2 2 124 1 270 l-3 265 -88 -28z"/>
<path d="M7082 2648 c-40 -12 -70 -23 -68 -25 3 -3 29 2 59 11 73 21 75 21 80
-16 3 -29 4 -27 5 10 1 23 1 42 0 41 -2 0 -36 -10 -76 -21z"/>
<path d="M6980 2590 c0 -16 2 -30 4 -30 2 0 6 14 8 30 3 17 1 30 -4 30 -4 0
-8 -13 -8 -30z"/>
<path d="M4925 2039 c-17 -8 -15 -8 7 -4 15 3 44 -2 64 -10 21 -8 39 -14 41
-11 4 4 -73 36 -85 35 -4 0 -16 -5 -27 -10z"/>
<path d="M4878 2023 c7 -3 16 -2 19 1 4 3 -2 6 -13 5 -11 0 -14 -3 -6 -6z"/>
<path d="M5080 1990 c8 -5 20 -10 25 -10 6 0 3 5 -5 10 -8 5 -19 10 -25 10 -5
0 -3 -5 5 -10z"/>
<path d="M4628 1953 c7 -3 16 -2 19 1 4 3 -2 6 -13 5 -11 0 -14 -3 -6 -6z"/>
<path d="M4019 2184 c-101 -32 -140 -59 -155 -109 -8 -25 -13 -120 -13 -258
-1 -218 -1 -218 20 -212 12 4 66 20 121 36 56 15 102 30 105 32 2 2 2 123 1
270 l-3 265 -76 -24z"/>
<path d="M4280 1859 c-51 -17 -46 -18 30 -2 24 4 29 1 33 -18 3 -19 5 -17 6 9
1 37 4 36 -69 11z"/>
<path d="M2910 1474 l-35 -14 32 6 c25 4 32 1 36 -13 3 -12 5 -9 6 10 0 15 0
27 -1 26 -2 0 -19 -7 -38 -15z"/>
<path d="M2848 1453 c7 -3 16 -2 19 1 4 3 -2 6 -13 5 -11 0 -14 -3 -6 -6z"/>
</g>
</svg>
