<?xml version="1.0" standalone="no"?>
<!DOCTYPE svg PUBLIC "-//W3C//DTD SVG 20010904//EN"
 "http://www.w3.org/TR/2001/REC-SVG-20010904/DTD/svg10.dtd">
<svg version="1.0" xmlns="http://www.w3.org/2000/svg"
 width="700.000000pt" height="700.000000pt" viewBox="0 0 700.000000 700.000000"
 preserveAspectRatio="xMidYMid meet">

<g transform="translate(0.000000,700.000000) scale(0.100000,-0.100000)"
fill="#000000" stroke="none">
<path d="M2399 6558 c-1 -7 0 -40 1 -73 4 -137 -48 -342 -127 -505 -52 -105
-148 -202 -219 -219 -64 -15 -138 -58 -189 -108 -78 -77 -97 -155 -30 -125 36
17 120 15 155 -3 36 -19 37 -28 5 -45 -13 -7 -62 -67 -108 -134 -92 -131 -108
-149 -150 -165 -17 -7 -27 -18 -27 -30 0 -32 35 -44 106 -36 l64 7 -21 -49
c-38 -87 -29 -201 56 -688 43 -248 49 -328 30 -440 -8 -49 -13 -90 -12 -92 2
-1 25 5 52 13 57 18 170 23 185 8 6 -6 19 -43 31 -84 48 -174 123 -297 238
-392 25 -21 48 -38 52 -38 3 0 -5 33 -18 73 -41 123 -65 296 -61 427 3 101 7
121 31 167 37 72 49 131 48 252 0 83 3 109 17 130 26 38 39 71 64 164 19 70
22 108 23 264 0 101 2 183 5 183 3 0 20 -16 38 -35 18 -19 46 -42 62 -52 16
-9 32 -23 35 -31 26 -68 169 -233 267 -308 60 -47 171 -104 201 -104 14 0 10
10 -22 53 -110 148 -211 446 -211 627 0 38 4 71 9 74 5 3 18 -24 30 -62 57
-189 207 -424 390 -615 75 -78 161 -147 183 -147 4 0 -12 30 -36 68 -117 181
-176 377 -176 584 0 93 14 188 29 188 3 0 19 -24 34 -54 80 -152 240 -288 402
-339 64 -20 161 -32 168 -20 3 5 -21 33 -53 61 -44 39 -69 72 -96 127 -43 88
-53 154 -53 385 -1 247 -29 416 -91 548 l-29 62 69 45 c66 44 187 162 210 206
12 21 11 21 -32 13 -61 -12 -212 -9 -283 6 -33 7 -105 28 -160 46 -320 109
-604 78 -841 -92 -41 -30 -77 -54 -80 -54 -2 0 -4 34 -4 75 0 106 -31 197 -87
252 -42 43 -72 55 -74 31z"/>
<path d="M3788 6057 c-16 -13 -28 -27 -28 -32 0 -6 13 -44 29 -85 42 -107 60
-233 70 -490 15 -354 57 -473 198 -552 65 -37 66 -54 3 -86 -35 -18 -58 -22
-105 -20 l-60 3 -3 -85 c-2 -47 4 -202 12 -345 9 -143 20 -348 26 -455 13
-223 -6 -177 154 -386 187 -246 251 -355 265 -459 14 -98 0 -156 -50 -206 -21
-21 -42 -39 -47 -39 -4 0 -7 42 -8 93 -1 78 -6 106 -33 182 -62 169 -147 310
-257 425 -57 60 -62 70 -72 130 -22 129 -51 582 -59 914 -6 241 -7 249 -27
254 -12 3 -56 23 -99 45 -93 46 -182 126 -239 214 -42 65 -42 65 -50 37 -28
-103 88 -465 221 -691 l31 -53 -28 0 c-16 0 -57 14 -92 32 -118 59 -337 304
-442 495 -22 41 -42 72 -45 69 -7 -7 27 -122 59 -200 32 -78 107 -212 148
-266 49 -64 49 -63 -21 -58 -140 9 -358 154 -460 305 -35 53 -99 123 -111 123
-4 0 -8 -33 -8 -74 0 -144 -43 -366 -81 -418 -17 -25 -19 -38 -13 -120 8 -115
-5 -185 -51 -288 -31 -68 -35 -88 -35 -156 0 -160 48 -378 105 -481 l24 -43
-48 0 c-73 0 -143 40 -242 139 -98 99 -147 184 -174 306 -21 94 -33 103 -113
80 -155 -45 -241 -135 -299 -309 -23 -71 -26 -98 -27 -216 0 -111 4 -150 22
-219 57 -209 176 -367 332 -440 43 -19 71 -25 130 -26 l75 0 6 165 c9 208 60
527 88 544 4 3 17 -3 30 -13 l23 -18 -20 -64 c-44 -142 -57 -268 -56 -539 1
-351 13 -399 147 -570 154 -197 275 -319 477 -481 209 -167 497 -334 598 -346
l51 -6 -9 34 c-15 50 -12 212 4 304 19 101 38 164 81 265 l34 79 -37 6 c-58
10 -181 54 -224 81 -41 26 -94 78 -109 106 -12 23 13 25 31 3 48 -58 219 -135
300 -135 48 0 49 1 54 32 44 295 46 273 -17 288 -19 4 -79 3 -132 -2 -237 -25
-446 58 -527 208 -63 119 -42 124 62 15 59 -61 92 -86 155 -117 l79 -39 196 0
c107 -1 200 -4 207 -8 8 -5 14 4 17 30 3 21 13 76 23 123 30 156 30 160 -16
207 -48 49 -50 64 -14 91 14 10 23 24 20 29 -13 21 -94 25 -162 8 -69 -18 -81
-16 -72 9 15 40 139 67 214 47 80 -22 110 -75 68 -121 -18 -19 -17 -20 12 -20
59 0 151 89 173 168 22 80 16 118 -71 417 -12 39 -23 78 -26 88 -11 40 17 11
80 -83 178 -268 251 -504 171 -557 -24 -15 -28 -15 -77 5 l-52 22 -58 -54 -57
-54 35 -6 c23 -5 45 -20 66 -45 l32 -38 29 33 c40 45 89 54 130 24 29 -22 31
-22 41 -4 31 54 91 79 136 55 15 -8 19 -3 29 33 7 28 24 54 48 76 33 29 42 32
84 28 l48 -5 6 50 c12 103 112 247 171 247 35 0 31 -20 -14 -64 -77 -76 -122
-208 -87 -260 20 -31 84 -50 140 -41 59 10 146 51 184 88 63 60 121 210 122
312 0 98 -47 199 -108 232 -17 10 -31 20 -29 23 2 3 19 39 39 80 72 149 83
300 33 443 l-23 66 32 24 c17 14 44 48 60 77 73 134 28 336 -107 485 l-54 60
-6 115 c-23 447 -331 891 -772 1112 -102 51 -318 128 -358 128 -12 -1 -34 -11
-49 -23z m715 -1713 c92 -24 144 -52 214 -117 216 -203 286 -517 155 -706 -37
-54 -72 -82 -59 -46 4 9 12 49 18 87 29 187 -45 410 -182 547 -230 231 -521
132 -571 -195 l-12 -79 -12 40 c-7 22 -13 76 -13 121 -1 127 36 214 123 291
78 68 210 91 339 57z m-1062 -43 c71 -27 132 -79 153 -130 16 -42 12 -76 -8
-68 -54 21 -152 31 -301 31 -197 0 -281 -15 -390 -69 -43 -20 -74 -30 -79 -25
-16 16 26 79 100 149 71 68 151 110 249 131 68 15 214 5 276 -19z m1057 -151
c113 -57 217 -200 257 -355 32 -123 17 -289 -34 -372 -17 -27 -27 -32 -75 -38
-63 -8 -179 12 -248 43 -95 42 -229 170 -257 245 -5 13 -12 60 -16 103 -12
137 26 265 101 339 73 73 169 86 272 35z m-1132 -69 c74 -34 74 -60 0 -35 -35
12 -73 15 -144 12 -86 -3 -104 -7 -156 -36 -66 -36 -76 -38 -76 -19 0 22 44
56 96 77 68 27 222 27 280 1z m55 -144 c30 -13 72 -39 92 -57 48 -42 91 -114
82 -138 -5 -14 -14 -9 -48 30 -41 47 -103 98 -119 98 -4 0 -8 -19 -8 -42 -1
-24 -7 -54 -15 -68 -21 -37 -18 -42 15 -25 36 19 70 19 70 2 0 -34 -169 -97
-260 -97 -120 0 -263 71 -223 111 8 8 17 7 34 -5 32 -22 42 -20 28 5 -6 13 -9
47 -7 80 2 33 1 59 -2 59 -3 0 -26 -13 -51 -28 -55 -36 -126 -112 -144 -156
-16 -37 -37 -50 -54 -33 -17 17 -13 34 14 75 70 103 174 176 296 207 84 22
231 13 300 -18z m-1300 -316 c67 -75 86 -184 51 -285 -15 -44 -21 -51 -57 -61
-53 -14 -73 -51 -51 -93 18 -34 33 -42 86 -42 30 0 43 -6 59 -26 44 -56 51
-167 15 -236 -20 -38 -70 -68 -114 -68 -72 1 -161 64 -176 125 -13 53 27 61
57 11 43 -73 166 -92 189 -30 13 33 13 80 -1 127 -9 33 -13 37 -42 37 -76 0
-147 69 -147 142 0 32 7 47 34 74 21 21 44 34 60 34 21 0 26 6 33 38 16 80 -1
178 -38 226 -64 82 -179 -36 -209 -215 -14 -85 -34 -87 -38 -5 -4 70 17 145
57 209 43 66 83 89 146 84 43 -4 54 -10 86 -46z m989 -67 c27 -10 80 -16 133
-17 64 0 87 -4 87 -13 0 -46 -262 -14 -278 34 -5 16 3 15 58 -4z m458 -348
c-2 -7 -23 -29 -47 -47 -57 -44 -91 -107 -91 -170 0 -46 2 -50 40 -74 44 -28
48 -36 25 -55 -38 -32 -118 31 -130 101 -14 81 46 198 122 238 45 24 86 27 81
7z m-515 -392 c4 -4 -16 -31 -43 -61 -33 -36 -55 -71 -65 -105 -19 -65 -19
-86 1 -133 19 -46 13 -65 -20 -65 -61 0 -93 160 -49 245 40 77 146 148 176
119z"/>
<path d="M3138 4265 c-32 -8 -77 -24 -100 -36 -45 -23 -138 -97 -138 -109 0
-4 37 5 83 20 165 55 369 64 507 21 35 -11 66 -18 68 -16 12 11 -55 78 -101
102 -45 23 -66 27 -157 30 -67 1 -126 -3 -162 -12z"/>
<path d="M3183 3923 c-42 -5 -63 -36 -63 -91 0 -91 45 -128 147 -123 34 2 91
57 99 96 8 46 -11 102 -39 108 -39 10 -111 15 -144 10z"/>
<path d="M4502 2830 c-17 -16 -38 -51 -48 -77 -10 -27 -18 -49 -20 -51 -1 -2
-14 8 -29 22 -47 44 -88 28 -124 -49 l-22 -46 -33 36 c-18 19 -40 35 -47 35
-26 0 -76 -38 -98 -74 -13 -20 -26 -34 -30 -32 -4 3 -21 26 -36 51 -17 26 -40
48 -53 52 -85 21 -135 -104 -152 -377 -12 -192 -43 -362 -87 -474 -62 -161
-76 -226 -77 -376 -1 -96 3 -145 13 -169 l15 -34 96 7 c180 11 310 59 445 161
148 113 243 251 287 417 25 98 71 210 124 305 36 65 88 121 271 293 116 108
162 244 114 337 l-21 41 -60 -29 c-56 -27 -94 -39 -172 -54 l-28 -5 0 -103 c0
-116 -25 -238 -65 -316 -24 -49 -66 -91 -90 -91 -7 0 -16 -11 -19 -24 -12 -49
-106 -175 -149 -200 -58 -34 -107 -41 -143 -23 -27 14 -31 13 -59 -9 -47 -37
-79 -39 -138 -10 l-53 25 -49 -24 c-58 -30 -104 -32 -136 -6 -32 26 -15 48 24
30 39 -18 100 3 134 46 l27 34 33 -39 c54 -63 101 -62 169 1 30 29 30 29 49 9
11 -12 31 -20 52 -20 62 0 161 111 199 224 16 48 23 53 40 36 48 -48 136 170
138 340 1 98 -19 154 -73 208 -42 42 -79 42 -119 2z m106 -57 c19 -49 23 -126
13 -212 -11 -84 -39 -191 -51 -191 -12 0 -44 75 -56 130 -6 30 -17 76 -25 102
-12 44 -11 50 12 99 46 100 86 126 107 72z m-219 -109 c29 -37 52 -115 54
-185 2 -59 1 -62 -33 -90 -19 -16 -50 -31 -68 -35 l-32 -6 0 64 c0 36 -5 89
-10 118 -9 47 -7 59 14 107 28 59 45 65 75 27z m-421 -6 c19 -24 41 -120 48
-207 l7 -88 -35 -21 c-38 -24 -72 -27 -112 -12 -33 12 -34 48 -5 174 22 95 32
120 57 149 18 20 26 21 40 5z m247 -64 c22 -44 33 -208 16 -233 -14 -21 -133
-28 -148 -10 -6 8 -13 43 -15 79 -4 56 -1 72 21 114 28 51 76 99 95 93 6 -2
20 -21 31 -43z m295 -268 c0 -24 -61 -135 -101 -186 -17 -21 -44 -44 -61 -51
-26 -11 -32 -10 -50 9 l-21 21 22 73 c13 40 25 81 27 91 4 11 15 17 35 17 39
0 89 22 113 49 21 23 36 14 36 -23z m-241 -73 c-27 -79 -80 -173 -112 -196
-24 -19 -28 -19 -50 -4 -39 25 -60 80 -48 125 6 20 11 53 11 73 l0 36 68 -4
c47 -4 77 -1 102 10 51 22 51 22 29 -40z m-338 20 c26 -3 56 0 68 7 13 6 26 9
29 5 10 -9 -36 -133 -66 -182 -15 -23 -37 -48 -49 -54 -20 -11 -27 -10 -51 8
-15 12 -26 29 -25 39 2 11 6 59 9 107 6 75 9 87 23 81 9 -3 37 -9 62 -11z"/>
<path d="M2706 1753 c-3 -16 -15 -84 -26 -152 -11 -68 -30 -155 -42 -195 -79
-259 59 -569 347 -778 109 -78 274 -149 381 -164 l52 -6 7 113 c14 234 61 494
110 605 l23 51 -37 11 c-165 50 -521 281 -719 467 -44 41 -82 75 -85 75 -3 0
-8 -12 -11 -27z"/>
<path d="M3910 1223 c-30 -7 -110 -16 -177 -20 l-122 -6 -30 -71 c-59 -144
-115 -462 -109 -616 3 -71 4 -75 35 -96 81 -54 302 -72 424 -34 89 27 132 66
179 163 22 45 40 92 40 105 0 36 -26 78 -65 102 -41 25 -95 24 -233 -4 -94
-20 -178 -12 -277 25 -46 17 -55 24 -55 45 0 13 1 24 3 24 1 0 30 -10 62 -22
106 -39 283 -26 439 32 62 24 96 63 96 111 0 14 14 43 30 64 17 21 30 48 30
60 0 27 -36 75 -56 75 -8 0 -17 7 -20 15 -9 21 -64 52 -104 57 -19 3 -60 -1
-90 -9z m108 -135 c-7 -20 -109 -57 -190 -68 -106 -16 -218 2 -218 34 0 13 23
15 143 16 92 0 160 5 192 14 64 18 78 19 73 4z m-8 -137 c0 -13 -92 -46 -167
-61 -87 -17 -237 -10 -260 12 -29 30 -5 39 67 27 78 -13 237 -5 300 15 55 18
60 18 60 7z m-292 -317 c56 -11 89 -11 144 -4 101 15 108 -3 15 -34 -95 -32
-276 -7 -322 45 -28 30 -3 41 49 22 23 -8 74 -21 114 -29z m-95 -105 c42 -15
98 -23 175 -27 61 -2 112 -9 112 -13 0 -5 -26 -16 -57 -25 -51 -15 -69 -16
-143 -5 -117 17 -193 52 -175 81 9 14 17 13 88 -11z"/>
</g>
</svg>
